<mxfile host="app.diagrams.net" modified="2024-01-20T13:46:15.775Z" agent="Mozilla/5.0 (Macintosh; Intel Mac OS X 10_15_7) AppleWebKit/537.36 (KHTML, like Gecko) Chrome/120.0.0.0 Safari/537.36" etag="uXKlhchjSNaUPasiHpou" version="22.1.18" type="github">
  <diagram name="Page-1" id="kfKkWPTDTzjf0ijE4DBs">
    <mxGraphModel dx="954" dy="696" grid="1" gridSize="10" guides="1" tooltips="1" connect="1" arrows="1" fold="1" page="1" pageScale="1" pageWidth="1169" pageHeight="827" math="0" shadow="0">
      <root>
        <mxCell id="0" />
        <mxCell id="1" parent="0" />
        <mxCell id="Vs1UA3pdB5jLAvVI1XC_-1" value="&lt;font style=&quot;font-size: 19px;&quot;&gt;Seafood -&amp;gt;&amp;nbsp; seafood soup&lt;/font&gt;" style="text;html=1;strokeColor=none;fillColor=none;align=center;verticalAlign=middle;whiteSpace=wrap;rounded=0;" vertex="1" parent="1">
          <mxGeometry x="45" y="80" width="280" height="30" as="geometry" />
        </mxCell>
        <mxCell id="Vs1UA3pdB5jLAvVI1XC_-2" value="sauce" style="html=1;shadow=0;dashed=0;shape=mxgraph.bootstrap.rrect;rSize=5;strokeColor=#33A64C;strokeWidth=1;fillColor=none;fontColor=#33A64C;whiteSpace=wrap;align=center;verticalAlign=middle;spacingLeft=0;fontStyle=0;fontSize=16;spacing=5;" vertex="1" parent="1">
          <mxGeometry x="70" y="170" width="90" height="40" as="geometry" />
        </mxCell>
        <mxCell id="Vs1UA3pdB5jLAvVI1XC_-3" value="&lt;font style=&quot;font-size: 19px;&quot;&gt;Name (input)&lt;/font&gt;" style="text;html=1;strokeColor=none;fillColor=none;align=center;verticalAlign=middle;whiteSpace=wrap;rounded=0;" vertex="1" parent="1">
          <mxGeometry x="45" y="140" width="140" height="30" as="geometry" />
        </mxCell>
        <mxCell id="Vs1UA3pdB5jLAvVI1XC_-4" value="Single select" style="strokeWidth=1;shadow=0;dashed=0;align=center;html=1;shape=mxgraph.mockup.forms.comboBox;strokeColor=#999999;fillColor=#ddeeff;align=left;fillColor2=#aaddff;mainText=;fontColor=#666666;fontSize=17;spacingLeft=3;" vertex="1" parent="1">
          <mxGeometry x="190" y="175" width="150" height="30" as="geometry" />
        </mxCell>
        <mxCell id="Vs1UA3pdB5jLAvVI1XC_-5" value="&lt;font style=&quot;font-size: 19px;&quot;&gt;Type&lt;/font&gt;" style="text;html=1;strokeColor=none;fillColor=none;align=center;verticalAlign=middle;whiteSpace=wrap;rounded=0;" vertex="1" parent="1">
          <mxGeometry x="230" y="140" width="60" height="30" as="geometry" />
        </mxCell>
        <mxCell id="Vs1UA3pdB5jLAvVI1XC_-6" value="Add option" style="html=1;shadow=0;dashed=0;shape=mxgraph.bootstrap.rrect;rSize=5;strokeColor=none;strokeWidth=1;fillColor=#0085FC;fontColor=#FFFFFF;whiteSpace=wrap;align=center;verticalAlign=middle;spacingLeft=0;fontStyle=0;fontSize=16;spacing=5;" vertex="1" parent="1">
          <mxGeometry x="440" y="165" width="130" height="40" as="geometry" />
        </mxCell>
        <mxCell id="Vs1UA3pdB5jLAvVI1XC_-7" value="sauce" style="html=1;shadow=0;dashed=0;shape=mxgraph.bootstrap.rrect;rSize=5;strokeColor=#82b366;strokeWidth=1;fillColor=#d5e8d4;whiteSpace=wrap;align=center;verticalAlign=middle;spacingLeft=0;fontStyle=0;fontSize=16;spacing=5;" vertex="1" parent="1">
          <mxGeometry x="70" y="260" width="100" height="40" as="geometry" />
        </mxCell>
        <mxCell id="Vs1UA3pdB5jLAvVI1XC_-10" value="fish sauce" style="html=1;shadow=0;dashed=0;shape=mxgraph.bootstrap.rrect;rSize=5;strokeColor=#1CA5B8;strokeWidth=1;fillColor=none;fontColor=#1CA5B8;whiteSpace=wrap;align=center;verticalAlign=middle;spacingLeft=0;fontStyle=0;fontSize=16;spacing=5;" vertex="1" parent="1">
          <mxGeometry x="330" y="260" width="90" height="40" as="geometry" />
        </mxCell>
        <mxCell id="Vs1UA3pdB5jLAvVI1XC_-11" value="5000" style="html=1;shadow=0;dashed=0;shape=mxgraph.bootstrap.rrect;rSize=5;strokeColor=#1CA5B8;strokeWidth=1;fillColor=none;fontColor=#1CA5B8;whiteSpace=wrap;align=center;verticalAlign=middle;spacingLeft=0;fontStyle=0;fontSize=16;spacing=5;" vertex="1" parent="1">
          <mxGeometry x="460" y="260" width="90" height="40" as="geometry" />
        </mxCell>
        <mxCell id="Vs1UA3pdB5jLAvVI1XC_-13" value="add item" style="html=1;shadow=0;dashed=0;shape=mxgraph.bootstrap.rrect;rSize=5;strokeColor=none;strokeWidth=1;fillColor=#6C767D;fontColor=#FFFFFF;whiteSpace=wrap;align=left;verticalAlign=middle;spacingLeft=10;fontStyle=1;fontSize=18;" vertex="1" parent="1">
          <mxGeometry x="585" y="260" width="100" height="40" as="geometry" />
        </mxCell>
        <mxCell id="Vs1UA3pdB5jLAvVI1XC_-14" value="&lt;font style=&quot;font-size: 19px;&quot;&gt;Name (input)&lt;/font&gt;" style="text;html=1;strokeColor=none;fillColor=none;align=center;verticalAlign=middle;whiteSpace=wrap;rounded=0;" vertex="1" parent="1">
          <mxGeometry x="305" y="230" width="140" height="30" as="geometry" />
        </mxCell>
        <mxCell id="Vs1UA3pdB5jLAvVI1XC_-15" value="&lt;font style=&quot;font-size: 19px;&quot;&gt;Price (input)&lt;/font&gt;" style="text;html=1;strokeColor=none;fillColor=none;align=center;verticalAlign=middle;whiteSpace=wrap;rounded=0;" vertex="1" parent="1">
          <mxGeometry x="450" y="230" width="110" height="30" as="geometry" />
        </mxCell>
        <mxCell id="Vs1UA3pdB5jLAvVI1XC_-16" value="fish sauce" style="html=1;shadow=0;dashed=0;shape=mxgraph.bootstrap.rrect;rSize=5;strokeColor=#10739e;strokeWidth=1;fillColor=#b1ddf0;whiteSpace=wrap;align=center;verticalAlign=middle;spacingLeft=0;fontStyle=0;fontSize=16;spacing=5;" vertex="1" parent="1">
          <mxGeometry x="70" y="340" width="130" height="40" as="geometry" />
        </mxCell>
        <mxCell id="Vs1UA3pdB5jLAvVI1XC_-17" value="5000" style="html=1;shadow=0;dashed=0;shape=mxgraph.bootstrap.rrect;rSize=5;strokeColor=#10739e;strokeWidth=1;fillColor=#b1ddf0;whiteSpace=wrap;align=center;verticalAlign=middle;spacingLeft=0;fontStyle=0;fontSize=16;spacing=5;" vertex="1" parent="1">
          <mxGeometry x="320" y="340" width="90" height="40" as="geometry" />
        </mxCell>
        <mxCell id="Vs1UA3pdB5jLAvVI1XC_-18" value="tomato sauce" style="html=1;shadow=0;dashed=0;shape=mxgraph.bootstrap.rrect;rSize=5;strokeColor=#10739e;strokeWidth=1;fillColor=#b1ddf0;whiteSpace=wrap;align=center;verticalAlign=middle;spacingLeft=0;fontStyle=0;fontSize=16;spacing=5;" vertex="1" parent="1">
          <mxGeometry x="70" y="394" width="130" height="40" as="geometry" />
        </mxCell>
        <mxCell id="Vs1UA3pdB5jLAvVI1XC_-19" value="0000" style="html=1;shadow=0;dashed=0;shape=mxgraph.bootstrap.rrect;rSize=5;strokeColor=#10739e;strokeWidth=1;fillColor=#b1ddf0;whiteSpace=wrap;align=center;verticalAlign=middle;spacingLeft=0;fontStyle=0;fontSize=16;spacing=5;" vertex="1" parent="1">
          <mxGeometry x="320" y="394" width="90" height="40" as="geometry" />
        </mxCell>
        <mxCell id="Vs1UA3pdB5jLAvVI1XC_-20" value="noodle" style="html=1;shadow=0;dashed=0;shape=mxgraph.bootstrap.rrect;rSize=5;strokeColor=#82b366;strokeWidth=1;fillColor=#d5e8d4;whiteSpace=wrap;align=center;verticalAlign=middle;spacingLeft=0;fontStyle=0;fontSize=16;spacing=5;" vertex="1" parent="1">
          <mxGeometry x="70" y="480" width="100" height="40" as="geometry" />
        </mxCell>
        <mxCell id="Vs1UA3pdB5jLAvVI1XC_-21" value="vermicelli" style="html=1;shadow=0;dashed=0;shape=mxgraph.bootstrap.rrect;rSize=5;strokeColor=#1CA5B8;strokeWidth=1;fillColor=none;fontColor=#1CA5B8;whiteSpace=wrap;align=center;verticalAlign=middle;spacingLeft=0;fontStyle=0;fontSize=16;spacing=5;" vertex="1" parent="1">
          <mxGeometry x="350" y="480" width="90" height="40" as="geometry" />
        </mxCell>
        <mxCell id="Vs1UA3pdB5jLAvVI1XC_-22" value="3000" style="html=1;shadow=0;dashed=0;shape=mxgraph.bootstrap.rrect;rSize=5;strokeColor=#1CA5B8;strokeWidth=1;fillColor=none;fontColor=#1CA5B8;whiteSpace=wrap;align=center;verticalAlign=middle;spacingLeft=0;fontStyle=0;fontSize=16;spacing=5;" vertex="1" parent="1">
          <mxGeometry x="470" y="480" width="90" height="40" as="geometry" />
        </mxCell>
        <mxCell id="Vs1UA3pdB5jLAvVI1XC_-23" value="add item" style="html=1;shadow=0;dashed=0;shape=mxgraph.bootstrap.rrect;rSize=5;strokeColor=none;strokeWidth=1;fillColor=#6C767D;fontColor=#FFFFFF;whiteSpace=wrap;align=left;verticalAlign=middle;spacingLeft=10;fontStyle=1;fontSize=18;" vertex="1" parent="1">
          <mxGeometry x="590" y="480" width="100" height="40" as="geometry" />
        </mxCell>
        <mxCell id="Vs1UA3pdB5jLAvVI1XC_-24" value="&lt;font style=&quot;font-size: 19px;&quot;&gt;Name (input)&lt;/font&gt;" style="text;html=1;strokeColor=none;fillColor=none;align=center;verticalAlign=middle;whiteSpace=wrap;rounded=0;" vertex="1" parent="1">
          <mxGeometry x="330" y="450" width="140" height="30" as="geometry" />
        </mxCell>
        <mxCell id="Vs1UA3pdB5jLAvVI1XC_-25" value="&lt;font style=&quot;font-size: 19px;&quot;&gt;Price (input)&lt;/font&gt;" style="text;html=1;strokeColor=none;fillColor=none;align=center;verticalAlign=middle;whiteSpace=wrap;rounded=0;" vertex="1" parent="1">
          <mxGeometry x="470" y="450" width="110" height="30" as="geometry" />
        </mxCell>
        <mxCell id="Vs1UA3pdB5jLAvVI1XC_-26" value="vermicelli" style="html=1;shadow=0;dashed=0;shape=mxgraph.bootstrap.rrect;rSize=5;strokeColor=#10739e;strokeWidth=1;fillColor=#b1ddf0;whiteSpace=wrap;align=center;verticalAlign=middle;spacingLeft=0;fontStyle=0;fontSize=16;spacing=5;" vertex="1" parent="1">
          <mxGeometry x="70" y="550" width="130" height="40" as="geometry" />
        </mxCell>
        <mxCell id="Vs1UA3pdB5jLAvVI1XC_-27" value="3000" style="html=1;shadow=0;dashed=0;shape=mxgraph.bootstrap.rrect;rSize=5;strokeColor=#10739e;strokeWidth=1;fillColor=#b1ddf0;whiteSpace=wrap;align=center;verticalAlign=middle;spacingLeft=0;fontStyle=0;fontSize=16;spacing=5;" vertex="1" parent="1">
          <mxGeometry x="320" y="550" width="90" height="40" as="geometry" />
        </mxCell>
        <mxCell id="Vs1UA3pdB5jLAvVI1XC_-28" value="fried noodle" style="html=1;shadow=0;dashed=0;shape=mxgraph.bootstrap.rrect;rSize=5;strokeColor=#10739e;strokeWidth=1;fillColor=#b1ddf0;whiteSpace=wrap;align=center;verticalAlign=middle;spacingLeft=0;fontStyle=0;fontSize=16;spacing=5;" vertex="1" parent="1">
          <mxGeometry x="70" y="604" width="130" height="40" as="geometry" />
        </mxCell>
        <mxCell id="Vs1UA3pdB5jLAvVI1XC_-29" value="0000" style="html=1;shadow=0;dashed=0;shape=mxgraph.bootstrap.rrect;rSize=5;strokeColor=#10739e;strokeWidth=1;fillColor=#b1ddf0;whiteSpace=wrap;align=center;verticalAlign=middle;spacingLeft=0;fontStyle=0;fontSize=16;spacing=5;" vertex="1" parent="1">
          <mxGeometry x="320" y="604" width="90" height="40" as="geometry" />
        </mxCell>
        <mxCell id="Vs1UA3pdB5jLAvVI1XC_-30" value="single selection" style="html=1;shadow=0;dashed=0;shape=mxgraph.bootstrap.rrect;rSize=5;strokeColor=#82b366;strokeWidth=1;fillColor=#d5e8d4;whiteSpace=wrap;align=center;verticalAlign=middle;spacingLeft=0;fontStyle=0;fontSize=16;spacing=5;" vertex="1" parent="1">
          <mxGeometry x="180" y="260" width="120" height="40" as="geometry" />
        </mxCell>
        <mxCell id="Vs1UA3pdB5jLAvVI1XC_-31" value="muti selection" style="html=1;shadow=0;dashed=0;shape=mxgraph.bootstrap.rrect;rSize=5;strokeColor=#82b366;strokeWidth=1;fillColor=#d5e8d4;whiteSpace=wrap;align=center;verticalAlign=middle;spacingLeft=0;fontStyle=0;fontSize=16;spacing=5;" vertex="1" parent="1">
          <mxGeometry x="180" y="480" width="120" height="40" as="geometry" />
        </mxCell>
      </root>
    </mxGraphModel>
  </diagram>
</mxfile>
